<svg width="78" height="78" viewBox="0 0 78 78" fill="none" xmlns="http://www.w3.org/2000/svg">
<circle cx="39" cy="39" r="39" fill="#3D6CB9"/>
<g clip-path="url(#clip0)">
<path d="M40.125 37.875C39.9025 37.875 39.685 37.941 39.5 38.0646C39.315 38.1882 39.1708 38.3639 39.0856 38.5695C39.0005 38.775 38.9782 39.0012 39.0216 39.2195C39.065 39.4377 39.1722 39.6382 39.3295 39.7955C39.4868 39.9528 39.6873 40.06 39.9055 40.1034C40.1238 40.1468 40.35 40.1245 40.5555 40.0394C40.7611 39.9542 40.9368 39.81 41.0604 39.625C41.184 39.44 41.25 39.2225 41.25 39C41.25 38.7016 41.1315 38.4155 40.9205 38.2045C40.7095 37.9935 40.4234 37.875 40.125 37.875ZM35.625 33.375C35.4025 33.375 35.185 33.441 35 33.5646C34.815 33.6882 34.6708 33.8639 34.5856 34.0695C34.5005 34.275 34.4782 34.5012 34.5216 34.7195C34.565 34.9377 34.6722 35.1382 34.8295 35.2955C34.9868 35.4528 35.1873 35.56 35.4055 35.6034C35.6238 35.6468 35.85 35.6245 36.0555 35.5394C36.2611 35.4542 36.4368 35.31 36.5604 35.125C36.684 34.94 36.75 34.7225 36.75 34.5C36.75 34.2016 36.6315 33.9155 36.4205 33.7045C36.2095 33.4935 35.9234 33.375 35.625 33.375ZM56.8031 40.3359C55.3315 37.0228 53.3979 29.6674 51.6654 27.2051C50.3162 25.2879 48.5256 23.7233 46.4447 22.6433C44.3639 21.5634 42.0538 20.9998 39.7095 21H34.5C27.0469 21 21 27.0469 21 34.5C20.9995 36.3964 21.4002 38.2715 22.1758 40.0021C22.9514 41.7326 24.0842 43.2796 25.5 44.5413V57H43.5V52.5H48C49.1935 52.5 50.3381 52.0259 51.182 51.182C52.0259 50.3381 52.5 49.1935 52.5 48V43.5H54.75C55.1247 43.4995 55.4933 43.4055 55.8224 43.2265C56.1515 43.0474 56.4307 42.789 56.6346 42.4748C56.8386 42.1605 56.9608 41.8002 56.9902 41.4267C57.0196 41.0532 56.9553 40.6783 56.8031 40.3359V40.3359ZM46.875 37.875H46.0228C44.0182 37.875 43.0141 40.2987 44.4316 41.7162L45.0349 42.3188C45.2459 42.5298 45.3645 42.8159 45.3645 43.1143C45.3645 43.4127 45.2459 43.6989 45.0349 43.9099C44.8239 44.1209 44.5377 44.2395 44.2393 44.2395C43.9409 44.2395 43.6548 44.1209 43.4438 43.9099L42.8412 43.3066C41.4237 41.8891 39 42.8932 39 44.8978V45.75C39 46.0484 38.8815 46.3345 38.6705 46.5455C38.4595 46.7565 38.1734 46.875 37.875 46.875C37.5766 46.875 37.2905 46.7565 37.0795 46.5455C36.8685 46.3345 36.75 46.0484 36.75 45.75V44.8978C36.75 42.8932 34.3263 41.8891 32.9088 43.3066L32.3063 43.9099C32.0952 44.1209 31.8091 44.2395 31.5107 44.2395C31.2123 44.2395 30.9261 44.1209 30.7151 43.9099C30.5041 43.6989 30.3855 43.4127 30.3855 43.1143C30.3855 42.8159 30.5041 42.5298 30.7151 42.3188L31.3184 41.7162C32.7359 40.2987 31.7318 37.875 29.7272 37.875H28.875C28.5766 37.875 28.2905 37.7565 28.0795 37.5455C27.8685 37.3345 27.75 37.0484 27.75 36.75C27.75 36.4516 27.8685 36.1655 28.0795 35.9545C28.2905 35.7435 28.5766 35.625 28.875 35.625H29.7272C31.7318 35.625 32.7359 33.2013 31.3184 31.7838L30.7151 31.1813C30.5041 30.9702 30.3855 30.6841 30.3855 30.3857C30.3855 30.2379 30.4146 30.0916 30.4712 29.9551C30.5277 29.8186 30.6106 29.6946 30.7151 29.5901C30.8196 29.4856 30.9436 29.4027 31.0801 29.3462C31.2166 29.2896 31.3629 29.2605 31.5107 29.2605C31.8091 29.2605 32.0952 29.3791 32.3063 29.5901L32.9088 30.1934C34.3263 31.6109 36.75 30.6068 36.75 28.6022V27.75C36.75 27.4516 36.8685 27.1655 37.0795 26.9545C37.2905 26.7435 37.5766 26.625 37.875 26.625C38.1734 26.625 38.4595 26.7435 38.6705 26.9545C38.8815 27.1655 39 27.4516 39 27.75V28.6022C39 30.6068 41.4237 31.6109 42.8412 30.1934L43.4438 29.5901C43.6548 29.3791 43.9409 29.2605 44.2393 29.2605C44.5377 29.2605 44.8239 29.3791 45.0349 29.5901C45.2459 29.8011 45.3645 30.0873 45.3645 30.3857C45.3645 30.6841 45.2459 30.9702 45.0349 31.1813L44.4316 31.7838C43.0141 33.2013 44.0182 35.625 46.0228 35.625H46.875C47.1734 35.625 47.4595 35.7435 47.6705 35.9545C47.8815 36.1655 48 36.4516 48 36.75C48 37.0484 47.8815 37.3345 47.6705 37.5455C47.4595 37.7565 47.1734 37.875 46.875 37.875Z" fill="white"/>
</g>
<defs>
<clipPath id="clip0">
<rect width="36" height="36" fill="white" transform="translate(21 21)"/>
</clipPath>
</defs>
</svg>
