<svg width="422" height="304" viewBox="0 0 422 304" fill="none" xmlns="http://www.w3.org/2000/svg">
<g clip-path="url(#clip0)">
<path d="M207.69 304C266.87 304 314.845 297.975 314.845 290.543C314.845 283.111 266.87 277.086 207.69 277.086C148.51 277.086 100.535 283.111 100.535 290.543C100.535 297.975 148.51 304 207.69 304Z" fill="#3F3D56"/>
<path d="M388.954 175.481L347.53 195.103L384.192 167.666C378.233 158.358 371.539 149.543 364.174 141.304L184.522 185.993L346.799 124.041C339.383 117.492 331.508 111.485 323.234 106.065L49.4855 150.194C20.4204 186.569 4.57609 231.753 4.55371 278.328H416.619C416.602 242.207 407.059 206.73 388.954 175.481Z" fill="#F2F2F2"/>
<path d="M300.829 93.3252C272.724 79.606 241.857 72.4971 210.586 72.5414C146.943 72.5414 90.0427 101.423 52.2493 146.802C116.967 132.611 229.645 108.044 300.829 93.3252Z" fill="#F2F2F2"/>
<path opacity="0.4" d="M341.356 113.154C344.766 113.154 347.529 110.388 347.529 106.976C347.529 103.564 344.766 100.798 341.356 100.798C337.947 100.798 335.184 103.564 335.184 106.976C335.184 110.388 337.947 113.154 341.356 113.154Z" fill="#3D6CB9"/>
<path opacity="0.4" d="M329.932 114.26C332.324 114.26 334.262 112.32 334.262 109.927C334.262 107.533 332.324 105.593 329.932 105.593C327.541 105.593 325.602 107.533 325.602 109.927C325.602 112.32 327.541 114.26 329.932 114.26Z" fill="#3D6CB9"/>
<path opacity="0.4" d="M49.1307 136.285C56.2707 136.285 62.0587 130.493 62.0587 123.347C62.0587 116.201 56.2707 110.409 49.1307 110.409C41.9907 110.409 36.2026 116.201 36.2026 123.347C36.2026 130.493 41.9907 136.285 49.1307 136.285Z" fill="#3D6CB9"/>
<path opacity="0.4" d="M25.2042 138.603C30.2128 138.603 34.2731 134.539 34.2731 129.527C34.2731 124.514 30.2128 120.45 25.2042 120.45C20.1956 120.45 16.1353 124.514 16.1353 129.527C16.1353 134.539 20.1956 138.603 25.2042 138.603Z" fill="#3D6CB9"/>
<path d="M422 277.914H0V278.742H422V277.914Z" fill="#2F2E41"/>
<path d="M374.19 277.914L341.324 229.055C341.324 229.055 391.098 246.446 385.449 277.914H374.19Z" fill="#3F3D56"/>
<path d="M375.48 277.914L408.347 229.055C408.347 229.055 358.573 246.446 364.222 277.914H375.48Z" fill="#3D6CB9"/>
<path d="M86.0548 54.9749C86.0548 52.2848 82.2222 50.1041 77.4943 50.1041C77.4007 50.1041 77.3081 50.1064 77.2153 50.1081C75.7891 45.7326 69.0471 42.419 60.944 42.419C54.0497 42.419 48.1409 44.8178 45.6527 48.2283C43.8143 47.7414 41.9199 47.4986 40.0182 47.5063C32.7689 47.5063 26.8921 50.8501 26.8921 54.9749C26.8921 58.7218 31.7417 61.8236 38.0641 62.3606C42.6584 63.2013 49.8348 63.7423 57.9002 63.7423C71.5932 63.7423 81.6124 61.1282 81.8637 59.1633C84.3727 58.314 86.0548 56.7565 86.0548 54.9749Z" fill="#F2F2F2"/>
<path d="M292.918 57.0452C292.918 54.3551 289.085 52.1744 284.357 52.1744C284.263 52.1744 284.171 52.1767 284.078 52.1784C282.652 47.8029 275.91 44.4893 267.807 44.4893C260.912 44.4893 255.004 46.8881 252.515 50.2986C250.677 49.8117 248.783 49.5689 246.881 49.5766C239.632 49.5766 233.755 52.9204 233.755 57.0452C233.755 60.7921 238.605 63.8939 244.927 64.4309C249.521 65.2716 256.698 65.8126 264.763 65.8126C278.456 65.8126 288.475 63.1985 288.726 61.2336C291.236 60.3843 292.918 58.8268 292.918 57.0452Z" fill="#F2F2F2"/>
<path d="M408.347 22.0386C408.347 17.3169 401.62 13.4891 393.321 13.4891C393.157 13.4891 392.995 13.4932 392.832 13.4962C390.328 5.81613 378.494 -1.52588e-05 364.271 -1.52588e-05C352.17 -1.52588e-05 341.799 4.21045 337.431 10.1967C334.205 9.34207 330.879 8.91598 327.542 8.92943C314.817 8.92943 304.502 14.7986 304.502 22.0386C304.502 28.6153 313.014 34.0599 324.112 35.0024C332.176 36.4781 344.772 37.4277 358.929 37.4277C382.963 37.4277 400.55 32.8392 400.991 29.3903C405.395 27.8997 408.347 25.1659 408.347 22.0386Z" fill="#F2F2F2"/>
<path d="M235.894 120.039C227.336 105.567 210.405 104.893 210.405 104.893C210.405 104.893 193.907 102.781 183.324 124.821C173.459 145.365 159.845 165.2 181.132 170.009L184.977 158.032L187.358 170.901C190.389 171.119 193.43 171.171 196.466 171.057C219.263 170.32 240.974 171.272 240.275 163.085C239.345 152.201 244.128 133.963 235.894 120.039Z" fill="#2F2E41"/>
<path d="M179.916 246.773C179.665 248.365 179.3 249.936 178.825 251.476C178.289 252.983 177.462 254.377 176.973 255.899C175.412 260.753 177.576 266.164 181.031 269.91C184.028 273.146 187.896 275.445 192.169 276.529C195.287 277.314 198.528 277.427 201.741 277.536C210.637 277.838 219.762 278.108 228.192 275.247C230.855 274.32 233.428 273.151 235.877 271.753C236.65 271.384 237.331 270.847 237.871 270.181C238.514 269.265 238.596 268.077 238.591 266.958C238.572 263.183 237.807 259.428 237.989 255.658C238.089 253.57 238.48 251.483 238.287 249.402C238.021 247.037 237.032 244.813 235.454 243.033C233.876 241.253 231.787 240.005 229.473 239.459C227.082 238.945 224.602 239.225 222.167 239.46C215.848 240.067 209.501 240.351 203.153 240.31C196.666 240.269 190.219 239.278 183.765 239.175C181.856 239.144 181.895 239.733 181.287 241.582C180.728 243.283 180.27 245.017 179.916 246.773Z" fill="#2F2E41"/>
<path d="M198.325 153.574C198.013 155.208 197.676 156.901 196.695 158.244C195.567 159.788 193.727 160.67 192.513 162.149C190.686 164.373 190.581 167.504 190.573 170.384C190.566 173.037 190.62 175.867 192.098 178.069C193.058 179.499 194.518 180.501 195.945 181.463C201.489 185.202 207.479 189.008 214.164 189.132C216.933 189.183 219.903 188.467 221.725 186.379C222.512 185.398 223.131 184.294 223.556 183.11C225.265 178.894 226.301 174.434 226.626 169.896C226.779 167.761 226.764 165.563 226.042 163.548C225.23 161.282 223.588 159.418 222.503 157.269C221.22 154.715 220.751 151.828 221.158 148.998C221.212 148.799 221.196 148.587 221.111 148.399C221.022 148.298 220.911 148.219 220.786 148.169C220.661 148.118 220.527 148.097 220.392 148.107L207.138 147.152C205.904 147.091 204.675 146.95 203.458 146.731C202.744 146.586 200.857 145.57 200.176 145.84C198.914 146.34 198.583 152.22 198.325 153.574Z" fill="#FFB8B8"/>
<path opacity="0.1" d="M198.325 153.574C198.013 155.208 197.676 156.901 196.695 158.244C195.567 159.788 193.727 160.67 192.513 162.149C190.686 164.373 190.581 167.504 190.573 170.384C190.566 173.037 190.62 175.867 192.098 178.069C193.058 179.499 194.518 180.501 195.945 181.463C201.489 185.202 207.479 189.008 214.164 189.132C216.933 189.183 219.903 188.467 221.725 186.379C222.512 185.398 223.131 184.294 223.556 183.11C225.265 178.894 226.301 174.434 226.626 169.896C226.779 167.761 226.764 165.563 226.042 163.548C225.23 161.282 223.588 159.418 222.503 157.269C221.22 154.715 220.751 151.828 221.158 148.998C221.212 148.799 221.196 148.587 221.111 148.399C221.022 148.298 220.911 148.219 220.786 148.169C220.661 148.118 220.527 148.097 220.392 148.107L207.138 147.152C205.904 147.091 204.675 146.95 203.458 146.731C202.744 146.586 200.857 145.57 200.176 145.84C198.914 146.34 198.583 152.22 198.325 153.574Z" fill="black"/>
<path d="M211 155.353C221.739 155.353 230.445 146.64 230.445 135.892C230.445 125.144 221.739 116.432 211 116.432C200.261 116.432 191.555 125.144 191.555 135.892C191.555 146.64 200.261 155.353 211 155.353Z" fill="#FFB8B8"/>
<path d="M201.052 179.48C202.066 180.54 203.139 181.59 204.468 182.211C205.82 182.77 207.272 183.047 208.734 183.024C212.24 183.123 216.039 182.48 218.478 179.958C221.621 176.707 221.517 171.463 223.981 167.671C224.18 167.327 224.451 167.03 224.775 166.802C225.188 166.577 225.655 166.469 226.125 166.491C229.237 166.462 231.947 168.482 234.394 170.407C235.489 171.269 236.613 172.162 237.304 173.374C237.788 174.318 238.119 175.333 238.285 176.381C239.499 182.312 239.892 188.376 240.283 194.417C240.498 197.754 240.714 201.094 240.698 204.438C240.645 215.454 238.086 226.286 235.542 237.004C235.214 238.385 234.766 239.928 233.511 240.59C232.952 240.842 232.351 240.988 231.738 241.023C224.451 241.879 217.149 242.737 209.813 242.85C206.95 242.894 204.088 242.825 201.228 242.642C200.735 242.635 200.247 242.55 199.781 242.39C199.149 242.086 198.606 241.624 198.205 241.05C194.236 236.045 194.002 229.126 194.027 222.737C194.089 207.117 194.647 191.509 195.7 175.913C195.787 174.626 195.806 173.063 194.88 172.05C196.548 174.724 198.869 177.196 201.052 179.48Z" fill="#D0CDE1"/>
<path d="M196.933 157.009C196.276 158.199 191.435 161.154 190.5 162.14C185.277 167.649 175.745 167.442 170.968 173.344C169.288 175.42 168.414 178.029 167.772 180.622C166.864 184.29 166.379 188.291 167.9 191.749C169.364 195.077 172.446 197.378 174.539 200.351C176.836 203.615 177.869 207.578 178.859 211.446C179.59 214.302 180.327 217.229 180.042 220.163C179.719 223.499 178.105 226.554 177.153 229.767C176.201 232.98 176.036 236.808 178.238 239.333C179.856 241.188 182.394 241.924 184.819 242.338C187.926 242.805 191.059 243.078 194.199 243.155C196.972 243.277 200.028 243.301 202.16 241.522C203.841 240.119 204.572 237.841 204.667 235.651C204.762 233.462 204.306 231.291 204.021 229.118C203.726 226.866 203.612 224.593 203.517 222.323C203.091 212.138 203.033 201.946 203.343 191.748C203.407 189.626 203.485 187.478 203.033 185.403C202.439 182.675 200.965 180.237 199.736 177.73C197.296 172.755 196.142 167.922 196.519 162.392C196.892 156.934 199.27 152.775 196.933 157.009Z" fill="#3D6CB9"/>
<path d="M224.239 157.423C225.24 158.452 228.639 158.792 229.911 159.454C231.108 160.008 232.357 160.44 233.64 160.746C238.281 162.086 242.697 164.114 246.738 166.763C247.578 167.254 248.32 167.896 248.929 168.656C249.641 169.647 249.899 170.884 250.14 172.081C250.763 175.17 251.39 178.296 251.25 181.444C251.101 184.786 250.095 188.022 249.097 191.215L245.369 203.143C242.586 212.047 239.786 221.039 239.003 230.335C238.57 235.488 238.762 240.673 239.576 245.779C239.658 246.293 239.727 246.881 239.388 247.275C239.143 247.518 238.82 247.667 238.475 247.695C236.676 247.977 234.935 247.059 233.304 246.246C228.321 243.765 223.004 242.023 217.519 241.077C219.662 237.977 221.316 234.565 222.422 230.962C223.05 228.673 223.544 226.351 223.903 224.005L225.637 213.966C226.343 210.297 226.84 206.59 227.125 202.865C227.256 201.466 227.175 200.056 226.884 198.683C226.484 197.375 225.953 196.112 225.3 194.911C222.441 188.961 221.1 182.171 222.225 175.665C222.717 172.818 223.673 169.968 223.275 167.106C222.891 164.355 223.29 162.216 222.584 159.494C219.688 148.314 222.357 155.488 224.239 157.423Z" fill="#3D6CB9"/>
<path d="M170.919 182.751C169.616 185.458 167.437 187.763 166.696 190.674C166.407 192.034 166.284 193.425 166.327 194.815C166.31 196.91 166.299 199.047 166.941 201.041C167.355 202.325 168.028 203.508 168.513 204.767C169.189 206.525 169.491 208.405 169.398 210.287C169.267 212.894 168.382 215.424 168.313 218.033C168.204 222.136 170.1 225.993 171.951 229.656C172.416 228.502 173.128 227.464 174.037 226.614C174.946 225.764 176.029 225.123 177.211 224.735C178.393 224.348 179.645 224.224 180.88 224.371C182.115 224.519 183.303 224.935 184.361 225.59C184.849 225.139 184.901 224.398 184.92 223.734C185.057 218.973 185.189 214.213 185.316 209.453C185.516 202.09 185.707 194.63 184.014 187.462C183.25 184.226 182.062 181.002 179.882 178.492C178.735 177.17 174.839 173.689 172.955 175.17C172.108 175.836 172.306 177.648 172.172 178.566C171.969 180.017 171.546 181.428 170.919 182.751Z" fill="#3D6CB9"/>
<path d="M251.63 174.953C252.247 176.874 252.284 178.926 252.296 180.943C252.321 185.058 252.266 189.173 252.132 193.287C252.064 195.393 251.969 197.528 251.331 199.536C250.91 200.86 250.261 202.102 249.826 203.422C248.524 207.377 249.236 211.667 249.347 215.831C249.426 217.178 249.311 218.53 249.006 219.845C248.319 222.426 246.472 224.511 245.182 226.85C243.958 229.071 243.219 231.56 241.757 233.632C240.295 235.704 237.763 237.346 235.309 236.71C233.45 236.228 232.129 234.581 231.215 232.891C229.222 229.174 228.54 224.892 229.28 220.739C230.197 215.686 233.163 211.203 234.233 206.18C235.701 199.283 233.469 192.165 233.536 185.113C233.505 184.007 233.655 182.904 233.979 181.847C234.54 180.236 235.745 178.95 236.858 177.658C238.249 176.043 239.541 174.346 240.728 172.576C241.525 171.386 242.607 168.327 244.02 168.073C247.174 167.505 250.848 172.514 251.63 174.953Z" fill="#3D6CB9"/>
<path d="M154.551 243.705C152.807 243.267 151.01 243.075 149.212 243.137C147.324 243.242 145.479 243.747 143.801 244.621C142.123 245.494 140.65 246.715 139.479 248.202C138.309 249.689 137.468 251.408 137.014 253.246C136.559 255.083 136.5 256.997 136.841 258.858C137.277 260.875 137.989 262.822 138.957 264.644C140.373 267.52 142.071 270.389 144.692 272.232C146.225 273.31 148 273.982 149.754 274.643L163.559 279.848C165.59 280.614 167.621 281.38 169.672 282.09C179.977 285.654 190.72 287.792 201.603 288.443C204.917 288.64 208.283 288.695 211.516 287.94C212.284 287.761 213.103 287.493 213.547 286.842C213.81 286.383 213.965 285.87 214.001 285.342L214.85 279.391C214.97 278.552 215.085 277.67 214.778 276.881C214.389 275.881 213.413 275.252 212.483 274.717C203.407 269.5 192.81 266.622 185.17 259.462C183.372 257.776 181.867 255.104 179.681 253.959C177.204 252.661 174.285 251.919 171.724 250.723C166.125 248.107 160.62 245.101 154.551 243.705Z" fill="#2F2E41"/>
<path opacity="0.1" d="M168.334 251.729C173.214 253.26 193.816 263.861 197.347 267.563C196.874 267.734 180.814 258.726 180.332 258.582C175.952 257.266 171.547 255.942 167.387 254.016C166.551 253.629 161.951 251.808 162.159 250.751C162.394 249.559 167.468 251.458 168.334 251.729Z" fill="black"/>
<path d="M229.211 291.529C229.488 291.55 229.763 291.469 229.985 291.302C230.082 291.177 230.153 291.033 230.195 290.88C230.236 290.727 230.247 290.568 230.226 290.411C230.219 287.708 230.211 285.005 230.204 282.302C227.874 281.191 225.268 280.835 222.71 280.493L210.774 278.896C211.048 278.933 208.908 284.041 209.236 284.723C209.815 285.925 214.235 286.99 215.483 287.558C219.82 289.53 224.326 291.699 229.211 291.529Z" fill="#FFB8B8"/>
<path d="M191.764 282.274C189.51 282.633 186.995 282.951 185.536 284.706C183.685 286.933 184.473 290.252 185.356 293.01C185.487 293.568 185.75 294.086 186.123 294.521C186.726 295.116 187.649 295.203 188.494 295.256C190.549 295.386 192.736 295.489 194.532 294.48C195.345 293.942 196.128 293.359 196.877 292.735C198.201 291.853 199.657 291.187 201.19 290.762C204.007 289.875 206.908 289.276 209.846 288.976C211.004 288.923 212.15 288.721 213.256 288.375C214.34 287.966 215.343 287.156 215.658 286.041C216.074 284.568 215.218 283.065 214.397 281.773C213.375 280.163 212.292 278.468 210.767 277.283C208.543 275.554 207.443 276.881 205.203 277.988C200.963 280.082 196.433 281.527 191.764 282.274Z" fill="#FFB8B8"/>
<path d="M185.875 284.305L171.566 280.073C169.825 279.558 168.055 279.039 166.241 279.04C164.426 279.042 162.528 279.637 161.351 281.019C160.241 282.323 159.923 284.104 159.647 285.794L159.055 289.408C158.754 291.245 158.453 293.117 158.724 294.959C158.995 296.8 159.934 298.64 161.566 299.531C163.547 300.613 165.973 300.084 168.183 299.632C172.647 298.719 177.187 298.232 181.743 298.177C183.456 298.156 185.252 298.178 186.766 297.375C188.565 296.421 189.641 294.403 189.826 292.374C190.108 289.287 189.079 285.253 185.875 284.305Z" fill="#2F2E41"/>
<path d="M234.836 280.617C236.691 280.292 238.328 279.237 240.105 278.614C242.607 277.737 245.318 277.737 247.969 277.747C248.942 277.75 249.978 277.772 250.788 278.312C251.956 279.09 252.255 280.647 252.454 282.036L253.651 290.421C253.877 291.998 254.101 293.617 253.749 295.171C253.398 296.725 252.34 298.223 250.799 298.624C248.928 299.11 247.094 297.914 245.327 297.128C240.911 295.164 235.778 295.666 231.174 294.198C230.32 293.926 229.405 293.509 229.056 292.682C228.899 292.217 228.843 291.723 228.891 291.234C228.97 288.539 228.402 284.858 229.213 282.283C229.942 279.966 232.765 280.617 234.836 280.617Z" fill="#2F2E41"/>
<path d="M265.117 240.331C267.976 239.613 270.94 239.41 273.87 239.732C276.21 239.99 278.621 240.642 280.329 242.263C282.409 244.236 283.077 247.287 283.133 250.154C283.224 255.865 281.332 261.43 277.778 265.899C276.911 267.03 275.879 268.024 274.717 268.849C273.464 269.633 272.128 270.277 270.734 270.77L239.818 282.974C231.684 286.185 223.522 289.405 215.038 291.521C214.806 291.633 214.554 291.698 214.297 291.711C214.04 291.724 213.782 291.686 213.54 291.598C213.298 291.51 213.076 291.374 212.887 291.199C212.698 291.024 212.546 290.813 212.439 290.578C209.731 286.706 207.458 282.546 205.663 278.173C205.578 278.069 205.52 277.946 205.492 277.815C205.465 277.683 205.469 277.547 205.505 277.418C205.542 277.289 205.608 277.17 205.7 277.072C205.792 276.974 205.906 276.9 206.032 276.855L227.9 264.28C229.467 263.38 231.05 262.466 232.351 261.211C233.296 260.295 234.07 259.216 234.636 258.027C235.089 257.08 235.132 254.844 235.711 254.143C236.278 253.458 238.217 253.403 239.112 253.133C240.375 252.746 241.612 252.278 242.816 251.732C247.707 249.542 252.063 246.36 256.753 243.796C259.383 242.291 262.193 241.126 265.117 240.331Z" fill="#2F2E41"/>
<path opacity="0.1" d="M252.72 249.721C248.963 252.545 244.098 255.141 240.375 258.04C239.104 259.029 217.919 270.949 217.62 272.532C221.093 273.117 243.222 257.624 246.388 256.078C249.554 254.532 252.361 252.352 255.142 250.188C255.851 249.637 258.854 247.979 256.82 247.363C255.674 247.015 253.566 249.157 252.72 249.721Z" fill="black"/>
<path d="M232.11 118.643L215.383 109.875L192.285 113.462L187.505 134.587L199.402 134.129L202.725 126.368V134.001L208.215 133.789L211.401 121.434L213.392 134.587L232.907 134.188L232.11 118.643Z" fill="#2F2E41"/>
<path d="M228.376 161.978H192.382V205.454H228.376V161.978Z" fill="#3F3D56"/>
<path d="M175.295 237.594C176.121 238.829 177.09 240.037 178.417 240.703C179.264 241.09 180.187 241.278 181.117 241.253C182.048 241.228 182.96 240.991 183.784 240.559C185.431 239.675 186.779 238.323 187.658 236.672C189.476 233.46 189.852 229.615 189.625 225.93C189.398 222.245 188.612 218.617 188.264 214.941C188.011 212.269 187.991 209.581 187.97 206.898C187.908 206.333 188.026 205.763 188.308 205.271C188.711 204.721 189.448 204.569 190.101 204.375C193.77 203.284 196.205 199.842 197.951 196.433C199.117 194.157 200.131 191.669 199.906 189.121C199.681 186.574 197.851 184.007 195.309 183.747C193.213 183.533 191.278 184.865 189.766 186.334C185.951 190.062 183.5 194.964 182.806 200.254C182.474 202.845 182.569 205.506 181.865 208.021C180.361 213.391 175.658 216.683 173.314 221.515C170.731 226.839 172.157 232.884 175.295 237.594Z" fill="#FFB8B8"/>
<path d="M244.508 217.079C243.974 218.325 243.195 219.45 242.218 220.39C241.242 221.329 240.087 222.063 238.822 222.548C237.25 223.18 235.516 223.286 233.879 222.851C233.067 222.625 232.318 222.216 231.69 221.653C231.062 221.091 230.571 220.392 230.257 219.609C230.007 218.821 229.87 218.001 229.85 217.174C229.614 213.553 229.705 209.822 231.019 206.439C231.526 205.135 232.21 203.898 232.61 202.557C233.003 201.008 233.204 199.416 233.209 197.818L233.641 187.938C233.712 187.221 233.663 186.496 233.494 185.795C233.063 184.366 231.728 183.437 230.503 182.584C227.545 180.525 224.621 178.123 223.188 174.814C222.695 173.818 222.519 172.695 222.682 171.595C223.087 169.633 225.065 168.363 227.02 167.935C228.3 167.655 229.623 167.637 230.909 167.883C232.196 168.128 233.419 168.631 234.506 169.363C235.593 170.094 236.521 171.038 237.234 172.137C237.946 173.237 238.429 174.469 238.653 175.761C238.847 176.876 238.844 178.015 238.958 179.141C239.198 181.529 239.955 183.832 240.429 186.185C241.597 191.982 240.992 197.974 242.146 203.77C243.112 208.615 246.752 211.777 244.508 217.079Z" fill="#FFB8B8"/>
<path d="M21.7747 277.508L20.9473 277.492C21.2673 268.285 22.2489 259.112 23.8846 250.045C27.4626 230.634 33.4124 217.886 41.5685 212.154L42.0436 212.832C22.9908 226.22 21.7844 276.997 21.7747 277.508Z" fill="#2F2E41"/>
<path d="M32.118 277.31L31.2905 277.294C31.3083 276.377 31.8255 254.763 40.3274 248.79L40.8026 249.467C32.6436 255.2 32.122 277.09 32.118 277.31Z" fill="#2F2E41"/>
<path d="M46.751 212.907C49.036 212.907 50.8883 211.053 50.8883 208.767C50.8883 206.48 49.036 204.626 46.751 204.626C44.4661 204.626 42.6138 206.48 42.6138 208.767C42.6138 211.053 44.4661 212.907 46.751 212.907Z" fill="#3D6CB9"/>
<path d="M44.7022 248.516C46.9871 248.516 48.8395 246.662 48.8395 244.376C48.8395 242.089 46.9871 240.235 44.7022 240.235C42.4173 240.235 40.5649 242.089 40.5649 244.376C40.5649 246.662 42.4173 248.516 44.7022 248.516Z" fill="#3D6CB9"/>
<path d="M30.1894 215.389C30.9669 220.36 28.9404 224.805 28.9404 224.805C28.9404 224.805 25.6532 221.192 24.8757 216.222C24.0981 211.252 26.1246 206.806 26.1246 206.806C26.1246 206.806 29.4118 210.419 30.1894 215.389Z" fill="#2F2E41"/>
<path d="M43.713 227.461C38.9581 229.093 34.231 227.87 34.231 227.87C34.231 227.87 37.2131 224.001 41.968 222.369C46.7229 220.737 51.4501 221.959 51.4501 221.959C51.4501 221.959 48.468 225.828 43.713 227.461Z" fill="#2F2E41"/>
<path d="M43.8657 258.996C41.7136 259.672 39.4218 259.771 37.2195 259.283C38.6178 257.501 40.5011 256.162 42.6425 255.427C44.7839 254.692 47.092 254.592 49.2887 255.14C47.8495 256.878 45.9795 258.208 43.8657 258.996Z" fill="#2F2E41"/>
</g>
<defs>
<clipPath id="clip0">
<rect width="422" height="304" fill="white"/>
</clipPath>
</defs>
</svg>
