<svg width="80" height="71" viewBox="0 0 80 71" fill="none" xmlns="http://www.w3.org/2000/svg">
<path fill-rule="evenodd" clip-rule="evenodd" d="M40.0604 4.84735C43.5959 6.15247 46.6606 9.08475 50.4261 9.11949C56.5131 9.17565 63.2646 1.36804 68.0878 5.10593C72.6465 8.63887 65.1393 17.0197 67.4586 22.3194C69.6274 27.2754 80.0448 26.9106 79.9999 32.3259C79.9518 38.116 70.3377 38.9416 67.28 43.8462C65.1976 47.1864 66.8384 51.7151 65.5831 55.4506C64.1371 59.7533 63.447 65.4995 59.3576 67.4204C55.0452 69.446 50.1485 64.3618 45.4221 64.9206C41.0897 65.4328 37.9988 69.9104 33.6705 70.4571C29.1593 71.0268 24.157 70.5938 20.3535 68.0865C16.5433 65.575 16.0651 59.9807 12.8506 56.7331C9.10745 52.9514 0.0453817 52.8614 0.000190211 47.5235C-0.0537382 41.1536 11.3766 39.7339 12.6538 33.4949C13.7397 28.1901 4.88708 24.2363 5.85786 18.909C6.69809 14.2982 13.4138 13.5886 16.8566 10.4315C20.2984 7.27536 21.7329 1.28873 26.2613 0.198935C31.0193 -0.94612 35.4675 3.15183 40.0604 4.84735Z" fill="#222222"/>
<g clip-path="url(#clip0)">
<path fill-rule="evenodd" clip-rule="evenodd" d="M38.1411 28.5936C39.6262 28.5936 40.8302 29.8047 40.8302 31.2987C40.8302 32.7925 39.6262 34.0037 38.1411 34.0037C36.6561 34.0037 35.4521 32.7925 35.4521 31.2987C35.4521 29.8047 36.656 28.5936 38.1411 28.5936ZM36.1864 18.5598C35.7131 17.4984 34.4742 17.024 33.4191 17.5001C32.364 17.9761 31.8924 19.2225 32.3656 20.2838C32.6777 20.9836 33.3226 21.4283 34.0283 21.5135L35.2699 23.9752C34.1062 24.5462 33.0516 25.3072 32.146 26.2182C32.078 26.2866 32.0108 26.356 31.9444 26.4261L28.9666 24.8314C29.0045 24.4339 28.9599 24.0219 28.821 23.6199C28.3048 22.1266 26.683 21.3369 25.1986 21.8562C23.7141 22.3754 22.9292 24.0069 23.4453 25.5002C23.9614 26.9934 25.5833 27.7831 27.0677 27.2639C27.3803 27.1546 27.6618 26.996 27.9067 26.7997L30.5527 28.2167C29.6984 29.5679 29.1129 31.1078 28.8716 32.7601L26.7038 32.7916C26.3394 32.2505 25.7306 31.8873 25.0316 31.8664C23.8757 31.832 22.911 32.7467 22.8768 33.9094C22.8425 35.0721 23.7519 36.0426 24.9077 36.077C25.7026 36.1007 26.4072 35.6754 26.7808 35.0293L28.7595 35.0004C28.801 35.9332 28.9511 36.8376 29.1977 37.7009L23.8284 40.623C23.4939 40.4909 23.1213 40.4437 22.7406 40.5037C21.5982 40.6838 20.8173 41.7616 20.9965 42.9107C21.1756 44.0599 22.2469 44.8454 23.3894 44.6652C24.4675 44.4951 25.2236 43.5256 25.1545 42.4509L30.0249 39.8004C30.5791 40.8847 31.2971 41.8705 32.1461 42.7245C32.2106 42.7893 32.2759 42.8534 32.3418 42.9168L29.9243 46.3544C29.4892 46.2557 29.0246 46.2585 28.5638 46.3826C27.0457 46.7918 26.1448 48.3615 26.5515 49.8887C26.9583 51.4158 28.5187 52.3221 30.0368 51.9129C31.5549 51.5036 32.4558 49.934 32.0491 48.4069C31.977 48.1362 31.8685 47.8852 31.7305 47.6573L34.0911 44.3006C35.4601 45.1847 37.0259 45.7872 38.7077 46.027L38.3067 49.2846C37.2044 49.8338 36.7389 51.1727 37.2677 52.2956C37.8021 53.4306 39.1502 53.9149 40.2786 53.3772C41.4069 52.8396 41.8883 51.4835 41.3538 50.3484C41.1673 49.9523 40.8816 49.6355 40.5408 49.4137L40.9453 46.1281C42.848 46.0313 44.6299 45.4734 46.1826 44.5634L47.0936 45.8587L48.3585 47.6572C48.2205 47.885 48.112 48.1361 48.0399 48.4068C47.6332 49.9339 48.5341 51.5035 50.0522 51.9128C51.5703 52.3219 53.1308 51.4157 53.5375 49.8885C53.9443 48.3614 53.0434 46.7917 51.5252 46.3825C51.0644 46.2584 50.5998 46.2555 50.1648 46.3543L48.9087 44.5682L47.9874 43.2581C48.1823 43.0865 48.3718 42.9086 48.5548 42.7243C49.3241 41.9505 49.9857 41.0685 50.5154 40.103L55.6562 41.9345C55.8771 42.8595 56.7047 43.547 57.692 43.547C58.8483 43.547 59.7858 42.604 59.7858 41.4407C59.7858 40.2776 58.8484 39.3345 57.692 39.3345C57.1901 39.3345 56.7295 39.5122 56.3688 39.8084L51.4011 38.0386C51.7596 36.9141 51.9534 35.7153 51.9534 34.471C51.9534 33.3452 51.7947 32.2569 51.499 31.2269L54.2639 29.8686C54.5832 30.1208 54.9739 30.2895 55.4071 30.3383C56.648 30.4778 57.7662 29.579 57.9049 28.3308C58.0435 27.0826 57.1499 25.9576 55.9091 25.8181C54.6816 25.6801 53.5741 26.5584 53.4163 27.7857L50.6718 29.1341C50.203 28.2185 49.6173 27.3732 48.9346 26.6185L52.7648 22.5835C53.0598 22.6936 53.3782 22.7559 53.7108 22.7612C55.2823 22.7854 56.5758 21.5236 56.5999 19.9427C56.624 18.362 55.3696 17.0607 53.7982 17.0364C52.2267 17.0122 50.9332 18.274 50.9091 19.8549C50.9026 20.2775 50.9877 20.68 51.1456 21.0436L47.284 25.1117C46.1582 24.2665 44.8749 23.6219 43.4863 23.2308L43.8238 20.3693C44.5408 20.0765 45.0679 19.3935 45.1259 18.5647C45.2069 17.4044 44.3376 16.3976 43.1841 16.3159C42.0306 16.2344 41.0297 17.109 40.9487 18.2693C40.9021 18.9357 41.1691 19.5515 41.6234 19.9704L41.2852 22.8368C40.9769 22.8121 40.6652 22.7993 40.3504 22.7993C39.3207 22.7993 38.3223 22.9345 37.3718 23.1878L36.0425 20.5527C36.407 19.9753 36.4855 19.2307 36.1864 18.5598ZM46.8893 27.8934C45.216 26.2101 42.9041 25.1689 40.3504 25.1689C37.7967 25.1689 35.4848 26.2101 33.8115 27.8934C32.1382 29.5767 31.1031 31.9023 31.1031 34.4712C31.1031 37.0401 32.1382 39.3658 33.8115 41.0492C35.4848 42.7324 37.7967 43.7736 40.3504 43.7736C42.9041 43.7736 45.216 42.7324 46.8893 41.0492C48.5626 39.3659 49.5977 37.0401 49.5977 34.4712C49.5977 31.9023 48.5626 29.5767 46.8893 27.8934ZM45.0813 31.6291C45.9331 31.6291 46.6237 32.3239 46.6237 33.1807C46.6237 34.0376 45.9331 34.7323 45.0813 34.7323C44.2295 34.7323 43.5389 34.0376 43.5389 33.1807C43.5389 32.3239 44.2295 31.6291 45.0813 31.6291ZM40.3137 36.0002C41.7989 36.0002 43.0028 37.2113 43.0028 38.7052C43.0028 40.1991 41.7989 41.4103 40.3137 41.4103C38.8287 41.4103 37.6247 40.1991 37.6247 38.7052C37.6247 37.2113 38.8286 36.0002 40.3137 36.0002Z" fill="#FFF591"/>
</g>
<defs>
<clipPath id="clip0">
<rect width="38.835" height="37.2816" fill="white" transform="translate(20.9709 16.3107)"/>
</clipPath>
</defs>
</svg>
